<?xml version="1.0" standalone="no"?>
<!DOCTYPE svg PUBLIC "-//W3C//DTD SVG 20010904//EN"
 "http://www.w3.org/TR/2001/REC-SVG-20010904/DTD/svg10.dtd">
<svg version="1.0" xmlns="http://www.w3.org/2000/svg"
 width="700.000000pt" height="700.000000pt" viewBox="0 0 700.000000 700.000000"
 preserveAspectRatio="xMidYMid meet">
<metadata>
Created by potrace 1.14, written by Peter Selinger 2001-2017
</metadata>
<g transform="translate(0.000000,700.000000) scale(0.100000,-0.100000)"
fill="#000000" stroke="none">
<path d="M1740 6996 c-3 -2 -49 -7 -102 -11 -54 -3 -105 -7 -115 -9 -10 -2
-40 -7 -68 -10 -127 -18 -292 -69 -439 -135 -302 -136 -598 -408 -787 -721
-43 -71 -74 -132 -132 -260 -31 -69 -62 -180 -79 -285 -20 -126 -17 -543 7
-730 17 -135 36 -279 46 -340 6 -38 12 -77 13 -85 4 -27 18 -105 23 -125 2
-11 6 -31 9 -45 22 -118 41 -207 71 -335 19 -82 36 -159 38 -170 3 -11 12 -49
21 -84 9 -36 17 -72 19 -80 17 -72 84 -305 125 -436 28 -88 55 -173 60 -190 4
-16 22 -73 38 -125 50 -158 200 -636 247 -785 24 -77 57 -183 73 -235 17 -52
56 -176 87 -275 31 -99 83 -265 116 -370 34 -104 85 -269 116 -365 154 -489
168 -519 289 -612 83 -63 239 -132 344 -152 14 -3 52 -10 85 -16 116 -23 242
3 366 76 67 39 203 165 253 232 29 41 136 219 136 228 0 2 31 59 69 126 37 68
82 148 98 178 54 98 284 513 316 570 17 30 40 72 51 94 12 21 40 55 63 75 159
141 423 147 589 12 61 -49 79 -79 347 -571 16 -30 37 -68 47 -85 18 -30 49
-86 103 -185 168 -307 223 -401 259 -447 50 -65 186 -193 225 -213 15 -8 35
-19 43 -26 8 -6 47 -24 85 -39 116 -46 253 -40 440 17 180 56 331 169 388 291
22 46 102 291 254 777 25 80 47 152 51 160 3 8 6 17 7 20 0 3 5 16 9 30 4 14
30 97 58 185 27 88 61 194 74 235 13 41 28 89 33 105 19 63 113 364 141 450
15 50 51 164 80 255 28 91 55 176 60 190 5 14 27 86 50 160 22 74 49 160 60
190 30 91 132 447 145 509 6 30 26 116 50 216 13 55 26 111 29 125 3 14 23
113 45 220 22 107 42 209 44 225 3 17 10 59 16 95 6 36 13 81 15 100 3 19 7
58 11 85 4 28 8 60 10 72 2 12 7 57 10 100 4 43 9 87 12 98 2 11 6 121 7 245
6 387 -18 515 -147 780 -176 363 -514 701 -862 860 -130 59 -276 108 -375 125
-40 6 -97 16 -123 21 -133 23 -607 23 -679 0 -7 -3 -31 -7 -53 -10 -22 -3 -49
-7 -60 -10 -11 -2 -56 -12 -100 -21 -44 -9 -152 -39 -240 -67 -508 -159 -748
-206 -955 -185 -56 6 -98 13 -253 43 -47 9 -334 90 -442 124 -205 65 -384 109
-514 125 -30 4 -63 9 -75 11 -29 7 -371 16 -376 10z m1327 -1082 c72 -55 67
91 67 -1694 1 -883 -2 -1622 -5 -1644 -16 -94 -113 -152 -203 -121 -46 16 -73
40 -96 85 -17 33 -18 120 -18 1654 0 1017 4 1630 10 1648 13 37 66 87 103 97
48 13 106 3 142 -25z m532 -593 c70 -50 66 28 67 -1111 0 -567 -3 -1040 -8
-1058 -5 -18 -24 -48 -43 -67 -82 -82 -235 -39 -262 73 -5 21 -9 496 -8 1058
l0 1021 28 41 c16 22 43 48 60 56 44 23 124 16 166 -13z m1064 -5 c66 -50 63
-2 62 -1136 -1 -1112 2 -1045 -55 -1098 -75 -68 -208 -44 -248 47 -16 36 -18
115 -17 1073 l0 1034 26 40 c36 54 80 76 145 71 36 -2 61 -11 87 -31z m-2160
-272 c28 -8 75 -52 93 -86 12 -22 13 -148 11 -771 l-2 -744 -28 -36 c-34 -45
-74 -67 -124 -69 -70 -2 -137 45 -158 112 -4 14 -8 351 -8 750 0 673 1 729 18
763 35 73 115 106 198 81z m1622 -310 c12 -8 32 -32 44 -55 l23 -41 -1 -440
c-1 -419 -2 -443 -20 -482 -59 -120 -245 -105 -289 24 -8 23 -12 162 -12 460
0 474 0 475 65 527 54 44 130 46 190 7z m-2116 -303 c55 -39 64 -70 66 -221 2
-159 -4 -187 -50 -233 -52 -52 -122 -61 -187 -25 -70 40 -81 71 -83 230 -1
182 13 224 88 262 44 23 124 16 166 -13z m3161 8 c66 -37 78 -73 80 -236 1
-163 -8 -195 -66 -239 -31 -24 -47 -29 -95 -29 -62 0 -94 17 -133 69 -19 24
-21 45 -24 173 -4 177 6 214 70 256 53 34 114 36 168 6z"/>
</g>
</svg>
