<svg width="145" height="145" viewBox="0 0 145 145" fill="none" xmlns="http://www.w3.org/2000/svg">
<path fill-rule="evenodd" clip-rule="evenodd" d="M72.5 109.769C73.985 109.769 77.4783 110.123 79.8543 113.24L93.0072 137.041C94.8693 140.04 100.121 145.811 106.231 144.904C113.868 143.771 117.757 140.442 118.959 137.041C119.921 134.321 132.136 95.3885 138.123 76.2621C148.306 38.6895 144.699 26.9587 142.79 23.4876C139.962 15.9788 129.482 0.819348 110.191 0.252642C107.386 -0.219614 99.3573 -0.356567 89.6836 2.87366C80.0099 6.10389 74.1971 6.76976 72.5 6.69893C70.8028 6.76976 64.9901 6.10388 55.3164 2.87366C45.6427 -0.35657 37.6142 -0.219616 34.8092 0.25264C15.5183 0.819346 5.03845 15.9787 2.20988 23.4876C0.300593 26.9587 -3.30585 38.6895 6.87703 76.2621C12.8642 95.3885 25.0789 134.321 26.0406 137.041C27.2428 140.442 31.1321 143.771 38.7692 144.904C44.8789 145.811 50.1307 140.04 51.9928 137.041L65.1457 113.24C67.5217 110.123 71.015 109.769 72.5 109.769ZM42.7414 54.6173C42.9084 55.0213 42.9944 55.4542 42.9944 55.8914V60.2834C42.9944 60.7206 42.9084 61.1536 42.7414 61.5575C42.5743 61.9615 42.3295 62.3285 42.0209 62.6376C41.7123 62.9468 41.3459 63.1921 40.9427 63.3594C40.5394 63.5267 40.1072 63.6128 39.6708 63.6128C39.2343 63.6128 38.8021 63.5267 38.3989 63.3594C37.9957 63.1921 37.6293 62.9468 37.3207 62.6376C37.012 62.3285 36.7672 61.9614 36.6002 61.5575C36.4332 61.1536 36.3472 60.7206 36.3472 60.2834V55.8914C36.3472 55.4542 36.4332 55.0213 36.6002 54.6173C36.7672 54.2134 37.012 53.8463 37.3207 53.5372C37.6293 53.228 37.9957 52.9828 38.3989 52.8155C38.8021 52.6481 39.2343 52.562 39.6708 52.562C40.1072 52.562 40.5394 52.6481 40.9427 52.8155C41.3459 52.9828 41.7123 53.228 42.0209 53.5372C42.3295 53.8463 42.5743 54.2134 42.7414 54.6173ZM53.7729 42.3623C53.9399 42.7662 54.0258 43.1992 54.0258 43.6364V72.5384C54.0258 72.9757 53.9399 73.4086 53.7729 73.8125C53.6058 74.2165 53.361 74.5835 53.0524 74.8927C52.7438 75.2018 52.3774 75.4471 51.9741 75.6144C51.5709 75.7817 51.1387 75.8678 50.7023 75.8678C50.2658 75.8678 49.8336 75.7817 49.4304 75.6144C49.0272 75.4471 48.6608 75.2018 48.3521 74.8927C48.0435 74.5835 47.7987 74.2165 47.6317 73.8125C47.4647 73.4086 47.3787 72.9757 47.3787 72.5384V43.6364C47.3787 43.1992 47.4647 42.7662 47.6317 42.3623C47.7987 41.9584 48.0435 41.5913 48.3521 41.2822C48.6608 40.973 49.0272 40.7278 49.4304 40.5604C49.8336 40.3931 50.2658 40.307 50.7023 40.307C51.1387 40.307 51.5709 40.3931 51.9741 40.5604C52.3774 40.7278 52.7438 40.973 53.0524 41.2822C53.361 41.5913 53.6058 41.9584 53.7729 42.3623ZM64.6628 23.8735C64.8298 24.2774 64.9158 24.7104 64.9158 25.1476V91.0272C64.9158 91.4645 64.8298 91.8974 64.6628 92.3013C64.4958 92.7053 64.251 93.0723 63.9424 93.3815C63.6337 93.6906 63.2673 93.9359 62.8641 94.1032C62.4609 94.2705 62.0287 94.3566 61.5922 94.3566C61.1558 94.3566 60.7236 94.2705 60.3204 94.1032C59.9171 93.9359 59.5507 93.6906 59.2421 93.3815C58.9335 93.0723 58.6887 92.7053 58.5216 92.3013C58.3546 91.8974 58.2687 91.4645 58.2687 91.0272V25.1476C58.2687 24.7104 58.3546 24.2774 58.5216 23.8735C58.6887 23.4696 58.9335 23.1025 59.2421 22.7934C59.5507 22.4842 59.9171 22.239 60.3204 22.0716C60.7236 21.9043 61.1558 21.8182 61.5922 21.8182C62.0287 21.8182 62.4609 21.9043 62.8641 22.0716C63.2673 22.239 63.6337 22.4842 63.9424 22.7934C64.251 23.1025 64.4958 23.4696 64.6628 23.8735ZM75.6943 36.1994C75.8613 36.6033 75.9473 37.0362 75.9473 37.4735V78.7014C75.9473 79.1386 75.8613 79.5715 75.6943 79.9755C75.5272 80.3794 75.2824 80.7464 74.9738 81.0556C74.6652 81.3648 74.2988 81.61 73.8956 81.7773C73.4923 81.9446 73.0601 82.0308 72.6237 82.0308C72.1872 82.0308 71.755 81.9446 71.3518 81.7773C70.9486 81.61 70.5822 81.3648 70.2736 81.0556C69.9649 80.7464 69.7201 80.3794 69.5531 79.9755C69.3861 79.5715 69.3001 79.1386 69.3001 78.7014V37.4735C69.3001 37.0362 69.3861 36.6033 69.5531 36.1994C69.7201 35.7954 69.9649 35.4284 70.2736 35.1192C70.5822 34.8101 70.9486 34.5648 71.3518 34.3975C71.755 34.2302 72.1872 34.1441 72.6237 34.1441C73.0601 34.1441 73.4923 34.2302 73.8956 34.3975C74.2988 34.5648 74.6652 34.8101 74.9738 35.1192C75.2824 35.4284 75.5272 35.7954 75.6943 36.1994ZM86.5843 48.3836C86.7513 48.7875 86.8373 49.2204 86.8373 49.6577V66.4463C86.8373 66.8836 86.7513 67.3165 86.5843 67.7204C86.4173 68.1244 86.1724 68.4914 85.8638 68.8006C85.5552 69.1097 85.1888 69.355 84.7856 69.5223C84.3823 69.6896 83.9502 69.7757 83.5137 69.7757C83.0772 69.7757 82.645 69.6896 82.2418 69.5223C81.8386 69.355 81.4722 69.1097 81.1636 68.8006C80.855 68.4914 80.6101 68.1244 80.4431 67.7204C80.2761 67.3165 80.1901 66.8836 80.1901 66.4463V49.6577C80.1901 49.2204 80.2761 48.7875 80.4431 48.3836C80.6101 47.9796 80.855 47.6126 81.1636 47.3034C81.4722 46.9943 81.8386 46.749 82.2418 46.5817C82.645 46.4144 83.0772 46.3283 83.5137 46.3283C83.9502 46.3283 84.3823 46.4144 84.7856 46.5817C85.1888 46.749 85.5552 46.9943 85.8638 47.3034C86.1724 47.6126 86.4173 47.9796 86.5843 48.3836ZM97.6157 36.1994C97.7828 36.6033 97.8687 37.0362 97.8687 37.4735V78.7014C97.8687 79.1386 97.7828 79.5715 97.6157 79.9755C97.4487 80.3794 97.2039 80.7464 96.8953 81.0556C96.5866 81.3648 96.2203 81.61 95.817 81.7773C95.4138 81.9446 94.9816 82.0308 94.5451 82.0308C94.1087 82.0308 93.6765 81.9446 93.2733 81.7773C92.87 81.61 92.5036 81.3648 92.195 81.0556C91.8864 80.7464 91.6416 80.3794 91.4746 79.9755C91.3075 79.5715 91.2216 79.1386 91.2216 78.7014V37.4735C91.2216 37.0362 91.3075 36.6033 91.4746 36.1994C91.6416 35.7954 91.8864 35.4284 92.195 35.1192C92.5036 34.8101 92.87 34.5648 93.2733 34.3975C93.6765 34.2302 94.1087 34.1441 94.5451 34.1441C94.9816 34.1441 95.4138 34.2302 95.817 34.3975C96.2203 34.5648 96.5866 34.8101 96.8953 35.1192C97.2039 35.4284 97.4487 35.7954 97.6157 36.1994ZM108.506 54.6173C108.673 55.0213 108.759 55.4542 108.759 55.8914V60.2834C108.759 60.7206 108.673 61.1536 108.506 61.5575C108.339 61.9615 108.094 62.3285 107.785 62.6376C107.477 62.9468 107.11 63.1921 106.707 63.3594C106.304 63.5267 105.872 63.6128 105.435 63.6128C104.999 63.6128 104.567 63.5267 104.163 63.3594C103.76 63.1921 103.394 62.9468 103.085 62.6376C102.776 62.3285 102.532 61.9614 102.365 61.5575C102.198 61.1536 102.112 60.7206 102.112 60.2834V55.8914C102.112 55.4542 102.198 55.0213 102.365 54.6173C102.532 54.2134 102.776 53.8463 103.085 53.5372C103.394 53.228 103.76 52.9828 104.163 52.8155C104.567 52.6481 104.999 52.562 105.435 52.562C105.872 52.562 106.304 52.6481 106.707 52.8155C107.11 52.9828 107.477 53.228 107.785 53.5372C108.094 53.8463 108.339 54.2134 108.506 54.6173Z" fill="#F87171"/>
</svg>
