<svg width="687" height="145" viewBox="0 0 687 145" fill="none" xmlns="http://www.w3.org/2000/svg">
<path fill-rule="evenodd" clip-rule="evenodd" d="M72.5 109.769C73.985 109.769 77.4783 110.123 79.8543 113.24L93.0072 137.041C94.8693 140.04 100.121 145.811 106.231 144.904C113.868 143.771 117.757 140.442 118.959 137.041C119.921 134.321 132.136 95.3885 138.123 76.2621C148.306 38.6895 144.699 26.9587 142.79 23.4876C139.962 15.9788 129.482 0.819348 110.191 0.252642C107.386 -0.219614 99.3573 -0.356567 89.6836 2.87366C80.0099 6.10389 74.1971 6.76976 72.5 6.69893C70.8028 6.76976 64.9901 6.10388 55.3164 2.87366C45.6427 -0.35657 37.6142 -0.219616 34.8092 0.25264C15.5183 0.819346 5.03845 15.9787 2.20988 23.4876C0.300593 26.9587 -3.30585 38.6895 6.87703 76.2621C12.8642 95.3885 25.0789 134.321 26.0406 137.041C27.2428 140.442 31.1321 143.771 38.7692 144.904C44.8789 145.811 50.1307 140.04 51.9928 137.041L65.1457 113.24C67.5217 110.123 71.015 109.769 72.5 109.769ZM42.7414 54.6173C42.9084 55.0213 42.9944 55.4542 42.9944 55.8914V60.2834C42.9944 60.7206 42.9084 61.1536 42.7414 61.5575C42.5743 61.9615 42.3295 62.3285 42.0209 62.6376C41.7123 62.9468 41.3459 63.1921 40.9427 63.3594C40.5394 63.5267 40.1072 63.6128 39.6708 63.6128C39.2343 63.6128 38.8021 63.5267 38.3989 63.3594C37.9957 63.1921 37.6293 62.9468 37.3207 62.6376C37.012 62.3285 36.7672 61.9614 36.6002 61.5575C36.4332 61.1536 36.3472 60.7206 36.3472 60.2834V55.8914C36.3472 55.4542 36.4332 55.0213 36.6002 54.6173C36.7672 54.2134 37.012 53.8463 37.3207 53.5372C37.6293 53.228 37.9957 52.9828 38.3989 52.8155C38.8021 52.6481 39.2343 52.562 39.6708 52.562C40.1072 52.562 40.5394 52.6481 40.9427 52.8155C41.3459 52.9828 41.7123 53.228 42.0209 53.5372C42.3295 53.8463 42.5743 54.2134 42.7414 54.6173ZM53.7729 42.3623C53.9399 42.7662 54.0258 43.1992 54.0258 43.6364V72.5384C54.0258 72.9757 53.9399 73.4086 53.7729 73.8125C53.6058 74.2165 53.361 74.5835 53.0524 74.8927C52.7438 75.2018 52.3774 75.4471 51.9741 75.6144C51.5709 75.7817 51.1387 75.8678 50.7023 75.8678C50.2658 75.8678 49.8336 75.7817 49.4304 75.6144C49.0272 75.4471 48.6608 75.2018 48.3521 74.8927C48.0435 74.5835 47.7987 74.2165 47.6317 73.8125C47.4647 73.4086 47.3787 72.9757 47.3787 72.5384V43.6364C47.3787 43.1992 47.4647 42.7662 47.6317 42.3623C47.7987 41.9584 48.0435 41.5913 48.3521 41.2822C48.6608 40.973 49.0272 40.7278 49.4304 40.5604C49.8336 40.3931 50.2658 40.307 50.7023 40.307C51.1387 40.307 51.5709 40.3931 51.9741 40.5604C52.3774 40.7278 52.7438 40.973 53.0524 41.2822C53.361 41.5913 53.6058 41.9584 53.7729 42.3623ZM64.6628 23.8735C64.8298 24.2774 64.9158 24.7104 64.9158 25.1476V91.0272C64.9158 91.4645 64.8298 91.8974 64.6628 92.3013C64.4958 92.7053 64.251 93.0723 63.9424 93.3815C63.6337 93.6906 63.2673 93.9359 62.8641 94.1032C62.4609 94.2705 62.0287 94.3566 61.5922 94.3566C61.1558 94.3566 60.7236 94.2705 60.3204 94.1032C59.9171 93.9359 59.5507 93.6906 59.2421 93.3815C58.9335 93.0723 58.6887 92.7053 58.5216 92.3013C58.3546 91.8974 58.2687 91.4645 58.2687 91.0272V25.1476C58.2687 24.7104 58.3546 24.2774 58.5216 23.8735C58.6887 23.4696 58.9335 23.1025 59.2421 22.7934C59.5507 22.4842 59.9171 22.239 60.3204 22.0716C60.7236 21.9043 61.1558 21.8182 61.5922 21.8182C62.0287 21.8182 62.4609 21.9043 62.8641 22.0716C63.2673 22.239 63.6337 22.4842 63.9424 22.7934C64.251 23.1025 64.4958 23.4696 64.6628 23.8735ZM75.6943 36.1994C75.8613 36.6033 75.9473 37.0362 75.9473 37.4735V78.7014C75.9473 79.1386 75.8613 79.5715 75.6943 79.9755C75.5272 80.3794 75.2824 80.7464 74.9738 81.0556C74.6652 81.3648 74.2988 81.61 73.8956 81.7773C73.4923 81.9446 73.0601 82.0308 72.6237 82.0308C72.1872 82.0308 71.755 81.9446 71.3518 81.7773C70.9486 81.61 70.5822 81.3648 70.2736 81.0556C69.9649 80.7464 69.7201 80.3794 69.5531 79.9755C69.3861 79.5715 69.3001 79.1386 69.3001 78.7014V37.4735C69.3001 37.0362 69.3861 36.6033 69.5531 36.1994C69.7201 35.7954 69.9649 35.4284 70.2736 35.1192C70.5822 34.8101 70.9486 34.5648 71.3518 34.3975C71.755 34.2302 72.1872 34.1441 72.6237 34.1441C73.0601 34.1441 73.4923 34.2302 73.8956 34.3975C74.2988 34.5648 74.6652 34.8101 74.9738 35.1192C75.2824 35.4284 75.5272 35.7954 75.6943 36.1994ZM86.5843 48.3836C86.7513 48.7875 86.8373 49.2204 86.8373 49.6577V66.4463C86.8373 66.8836 86.7513 67.3165 86.5843 67.7204C86.4173 68.1244 86.1724 68.4914 85.8638 68.8006C85.5552 69.1097 85.1888 69.355 84.7856 69.5223C84.3823 69.6896 83.9502 69.7757 83.5137 69.7757C83.0772 69.7757 82.645 69.6896 82.2418 69.5223C81.8386 69.355 81.4722 69.1097 81.1636 68.8006C80.855 68.4914 80.6101 68.1244 80.4431 67.7204C80.2761 67.3165 80.1901 66.8836 80.1901 66.4463V49.6577C80.1901 49.2204 80.2761 48.7875 80.4431 48.3836C80.6101 47.9796 80.855 47.6126 81.1636 47.3034C81.4722 46.9943 81.8386 46.749 82.2418 46.5817C82.645 46.4144 83.0772 46.3283 83.5137 46.3283C83.9502 46.3283 84.3823 46.4144 84.7856 46.5817C85.1888 46.749 85.5552 46.9943 85.8638 47.3034C86.1724 47.6126 86.4173 47.9796 86.5843 48.3836ZM97.6157 36.1994C97.7828 36.6033 97.8687 37.0362 97.8687 37.4735V78.7014C97.8687 79.1386 97.7828 79.5715 97.6157 79.9755C97.4487 80.3794 97.2039 80.7464 96.8953 81.0556C96.5866 81.3648 96.2203 81.61 95.817 81.7773C95.4138 81.9446 94.9816 82.0308 94.5451 82.0308C94.1087 82.0308 93.6765 81.9446 93.2733 81.7773C92.87 81.61 92.5036 81.3648 92.195 81.0556C91.8864 80.7464 91.6416 80.3794 91.4746 79.9755C91.3075 79.5715 91.2216 79.1386 91.2216 78.7014V37.4735C91.2216 37.0362 91.3075 36.6033 91.4746 36.1994C91.6416 35.7954 91.8864 35.4284 92.195 35.1192C92.5036 34.8101 92.87 34.5648 93.2733 34.3975C93.6765 34.2302 94.1087 34.1441 94.5451 34.1441C94.9816 34.1441 95.4138 34.2302 95.817 34.3975C96.2203 34.5648 96.5866 34.8101 96.8953 35.1192C97.2039 35.4284 97.4487 35.7954 97.6157 36.1994ZM108.506 54.6173C108.673 55.0213 108.759 55.4542 108.759 55.8914V60.2834C108.759 60.7206 108.673 61.1536 108.506 61.5575C108.339 61.9615 108.094 62.3285 107.785 62.6376C107.477 62.9468 107.11 63.1921 106.707 63.3594C106.304 63.5267 105.872 63.6128 105.435 63.6128C104.999 63.6128 104.567 63.5267 104.163 63.3594C103.76 63.1921 103.394 62.9468 103.085 62.6376C102.776 62.3285 102.532 61.9614 102.365 61.5575C102.198 61.1536 102.112 60.7206 102.112 60.2834V55.8914C102.112 55.4542 102.198 55.0213 102.365 54.6173C102.532 54.2134 102.776 53.8463 103.085 53.5372C103.394 53.228 103.76 52.9828 104.163 52.8155C104.567 52.6481 104.999 52.562 105.435 52.562C105.872 52.562 106.304 52.6481 106.707 52.8155C107.11 52.9828 107.477 53.228 107.785 53.5372C108.094 53.8463 108.339 54.2134 108.506 54.6173Z" fill="#F87171"/>
<path d="M200 116C196.267 116 193.133 114.8 190.6 112.4C188.2 109.867 187 106.733 187 103V47.4C187 43.9333 188.2 41 190.6 38.6C193 36.2 195.933 35 199.4 35H218.6C226.067 35 232.067 37.0667 236.6 41.2C241.133 45.2 243.4 50.1333 243.4 56C243.4 62.2667 241.333 67.2667 237.2 71C244.4 74.7333 248 81.1333 248 90.2C248 97.8 245.533 104 240.6 108.8C235.667 113.6 229.067 116 220.8 116H200ZM207.6 100H221.6C224.267 100 226.467 99.2 228.2 97.6C230.067 96 231 93.6667 231 90.6C231 87.5333 230.133 85.2 228.4 83.6C226.667 82 224.4 81.2 221.6 81.2H207.6C205.6 81.2 204.6 82.2 204.6 84.2V97C204.6 99 205.6 100 207.6 100ZM207.6 66H218.6C221 66 222.867 65.2 224.2 63.6C225.533 62 226.2 60.2667 226.2 58.4C226.2 56.5333 225.533 54.8667 224.2 53.4C222.867 51.8 221 51 218.6 51H207.6C205.6 51 204.6 52 204.6 54V63C204.6 65 205.6 66 207.6 66Z" fill="black"/>
<path d="M270 117.4C267.467 117.4 265.333 116.667 263.6 115.2C261.867 113.733 261 111.867 261 109.6V64.8C261 62.6667 261.8 60.8667 263.4 59.4C265.133 57.8 267.333 57 270 57C272.4 57 274.333 57.7333 275.8 59.2C277.4 60.5333 278.333 62.2 278.6 64.2C280.067 61.9333 282.067 60 284.6 58.4C287.133 56.8 289.8 56 292.6 56C294.333 56 296 56.2 297.6 56.6C299.467 57.1333 301 58.2 302.2 59.8C303.4 61.2667 304 63 304 65C304 67.8 303.067 70.1333 301.2 72C299.467 73.7333 297.4 74.3333 295 73.8C293.267 73.4 291.533 73.2 289.8 73.2C286.733 73.2 284.2 74.2667 282.2 76.4C280.2 78.5333 279 82.8667 278.6 89.4V109.4C278.6 111.667 277.733 113.6 276 115.2C274.4 116.667 272.4 117.4 270 117.4Z" fill="black"/>
<path d="M352.353 64.6C352.353 62.0667 353.153 60 354.753 58.4C356.486 56.8 358.62 56 361.153 56C363.686 56 365.753 56.8667 367.353 58.6C369.086 60.2 369.953 62.2 369.953 64.6V92.8C369.953 98.2667 368.553 102.933 365.753 106.8C362.953 110.533 359.353 113.333 354.953 115.2C350.553 117.067 345.886 118 340.953 118C336.153 118 331.553 117.067 327.153 115.2C322.753 113.333 319.086 110.533 316.153 106.8C313.353 102.933 311.953 98.2667 311.953 92.8V64.6C311.953 62.0667 312.753 60 314.353 58.4C316.086 56.8 318.22 56 320.753 56C323.286 56 325.353 56.8667 326.953 58.6C328.686 60.2 329.553 62.2 329.553 64.6V92C329.553 94.8 330.62 97.1333 332.753 99C334.886 100.867 337.62 101.8 340.953 101.8C344.286 101.8 347.02 100.867 349.153 99C351.286 97.1333 352.353 94.8 352.353 92V64.6Z" fill="black"/>
<path d="M405.823 118C396.757 118 389.29 116.133 383.423 112.4C382.223 111.6 381.357 110.667 380.823 109.6C380.29 108.4 380.023 107.267 380.023 106.2C380.023 103.933 380.757 101.867 382.223 100C383.823 98.1333 385.757 97.2 388.023 97.2C389.09 97.2 390.157 97.4667 391.223 98C393.623 99.0667 396.357 100 399.423 100.8C402.49 101.467 405.29 101.8 407.823 101.8C412.757 101.8 415.223 100.667 415.223 98.4C415.223 97.0667 414.623 95.9333 413.423 95C412.223 93.9333 409.423 93.2 405.023 92.8C403.29 92.6667 401.023 92.4 398.223 92C395.557 91.6 392.89 90.8667 390.223 89.8C387.557 88.6 385.29 86.8667 383.423 84.6C381.69 82.3333 380.823 79.2667 380.823 75.4C380.823 69.4 383.09 64.6667 387.623 61.2C392.157 57.7333 398.223 56 405.823 56C410.223 56 414.357 56.4667 418.223 57.4C422.223 58.3333 425.223 59.7333 427.223 61.6C429.09 63.3333 430.023 65.3333 430.023 67.6C430.023 69.6 429.29 71.4 427.823 73C426.357 74.6 424.49 75.4 422.223 75.4C421.023 75.4 419.89 75.1333 418.823 74.6C417.223 73.5333 415.157 72.7333 412.623 72.2C410.223 71.6667 407.757 71.4 405.223 71.4C400.157 71.4 397.623 72.4667 397.623 74.6C397.623 75.5333 398.09 76.4 399.023 77.2C400.09 77.8667 402.423 78.4667 406.023 79C408.29 79.2667 410.89 79.6667 413.823 80.2C416.757 80.6 419.557 81.4 422.223 82.6C425.023 83.6667 427.357 85.4667 429.223 88C431.09 90.5333 432.023 94 432.023 98.4C432.023 104.4 429.623 109.2 424.823 112.8C420.023 116.267 413.69 118 405.823 118Z" fill="black"/>
<path d="M452.031 118C449.498 118 447.365 117.267 445.631 115.8C443.898 114.333 443.031 112.467 443.031 110.2V35.8C443.031 33.6667 443.831 31.8667 445.431 30.4C447.165 28.8 449.365 28 452.031 28C454.565 28 456.631 28.8 458.231 30.4C459.831 31.8667 460.631 33.7333 460.631 36V62.6C462.365 60.6 464.698 59 467.631 57.8C470.565 56.6 473.698 56 477.031 56C484.498 56 490.498 58.2 495.031 62.6C499.698 67 502.031 74 502.031 83.6V110.6C502.031 112.733 501.165 114.533 499.431 116C497.831 117.333 495.765 118 493.231 118C490.698 118 488.565 117.267 486.831 115.8C485.231 114.333 484.431 112.467 484.431 110.2V85.8C484.431 80.8667 483.298 77.3333 481.031 75.2C478.898 73.0667 476.231 72 473.031 72C469.698 72 466.965 73.1333 464.831 75.4C462.698 77.5333 461.298 79.9333 460.631 82.6V110C460.631 112.267 459.765 114.2 458.031 115.8C456.431 117.267 454.431 118 452.031 118Z" fill="black"/>
<path d="M526.055 118C523.521 118 521.388 117.267 519.655 115.8C517.921 114.333 517.055 112.467 517.055 110.2V64.8C517.055 62.6667 517.855 60.8667 519.455 59.4C521.188 57.8 523.388 57 526.055 57C529.121 57 531.455 58.0667 533.055 60.2C533.721 61 534.121 61.8 534.255 62.6C535.855 60.6 537.988 59 540.655 57.8C543.321 56.6 546.321 56 549.655 56C558.721 56 565.255 59 569.255 65C571.655 62.0667 574.588 59.8667 578.055 58.4C581.521 56.8 585.121 56 588.855 56C596.321 56 602.188 58.2 606.455 62.6C610.855 67 613.055 74 613.055 83.6V110.6C613.055 112.733 612.188 114.533 610.455 116C608.855 117.333 606.788 118 604.255 118C601.721 118 599.588 117.267 597.855 115.8C596.255 114.333 595.455 112.467 595.455 110.2V85.8C595.455 80.8667 594.588 77.3333 592.855 75.2C591.121 73.0667 588.655 72 585.455 72C582.255 72 579.655 73 577.655 75C575.788 76.8667 574.521 79.1333 573.855 81.8V110.6C573.855 112.733 572.988 114.533 571.255 116C569.655 117.333 567.588 118 565.055 118C562.521 118 560.388 117.267 558.655 115.8C557.055 114.333 556.255 112.467 556.255 110.2V85.8C556.255 80.8667 555.388 77.3333 553.655 75.2C551.921 73.0667 549.455 72 546.255 72C543.188 72 540.655 73 538.655 75C536.655 76.8667 535.321 79.0667 534.655 81.6V110C534.655 112.267 533.788 114.2 532.055 115.8C530.455 117.267 528.455 118 526.055 118Z" fill="black"/>
<path d="M653.992 118C645.059 118 637.792 115.2 632.192 109.6C626.726 103.867 623.992 96.2667 623.992 86.8C623.992 77.3333 626.659 69.8667 631.992 64.4C637.459 58.8 644.592 56 653.392 56C659.659 56 665.126 58.2 669.792 62.6C670.326 61 671.326 59.6667 672.792 58.6C674.259 57.5333 675.992 57 677.992 57C680.659 57 682.792 57.8 684.392 59.4C686.126 60.8667 686.992 62.6667 686.992 64.8V110.2C686.992 112.467 686.126 114.333 684.392 115.8C682.792 117.267 680.659 118 677.992 118C673.592 118 670.859 116.067 669.792 112.2C665.526 116.067 660.259 118 653.992 118ZM655.392 101.8C659.659 101.8 663.059 100.4 665.592 97.6C668.126 94.6667 669.392 91.0667 669.392 86.8C669.392 82.4 668.126 78.8667 665.592 76.2C663.059 73.5333 659.659 72.2 655.392 72.2C651.259 72.2 647.859 73.5333 645.192 76.2C642.659 78.8667 641.392 82.4 641.392 86.8C641.392 91.0667 642.659 94.6667 645.192 97.6C647.859 100.4 651.259 101.8 655.392 101.8Z" fill="black"/>
</svg>
