<svg width="590" height="158" viewBox="0 0 590 158" fill="none" xmlns="http://www.w3.org/2000/svg">
<path fill-rule="evenodd" clip-rule="evenodd" d="M68.3497 158C30.6012 158 0 122.63 0 79C0 35.3695 30.6012 0 68.3497 0H521.65C559.399 0 590 35.3695 590 79C590 122.63 559.399 158 521.65 158H68.3497Z" fill="white"/>
<path fill-rule="evenodd" clip-rule="evenodd" d="M68.3497 158C30.6012 158 0 122.63 0 79C0 35.3695 30.6012 0 68.3497 0H521.65C559.399 0 590 35.3695 590 79C590 122.63 559.399 158 521.65 158H68.3497Z" fill="url(#paint0_linear_102_24)" fill-opacity="0.4"/>
<path fill-rule="evenodd" clip-rule="evenodd" d="M68.3497 158C30.6012 158 0 122.63 0 79C0 35.3695 30.6012 0 68.3497 0H521.65C559.399 0 590 35.3695 590 79C590 122.63 559.399 158 521.65 158H68.3497Z" fill="url(#paint1_linear_102_24)" fill-opacity="0.5"/>
<path fill-rule="evenodd" clip-rule="evenodd" d="M93.9906 106.759C95.0968 106.759 97.6991 107.023 99.4691 109.344L109.267 127.072C110.654 129.306 114.567 133.604 119.118 132.929C124.807 132.085 127.705 129.605 128.6 127.072C129.317 125.046 138.416 96.048 142.876 81.8021C150.462 53.817 147.775 45.0796 146.353 42.4942C144.246 36.9014 136.439 25.6103 122.068 25.1882C119.979 24.8364 113.998 24.7344 106.791 27.1404C99.585 29.5463 95.2548 30.0423 93.9906 29.9895C92.7263 30.0423 88.3961 29.5463 81.1897 27.1404C73.9833 24.7344 68.0026 24.8364 65.913 25.1882C51.5424 25.6103 43.7355 36.9014 41.6284 42.4942C40.206 45.0796 37.5194 53.817 45.1051 81.8021C49.5652 96.048 58.6645 125.046 59.3809 127.072C60.2765 129.605 63.1738 132.085 68.863 132.929C73.4144 133.604 77.3267 129.306 78.7139 127.072L88.512 109.344C90.282 107.023 92.8843 106.759 93.9906 106.759ZM71.822 65.6805C71.9465 65.9814 72.0105 66.3038 72.0105 66.6295V69.9007C72.0105 70.2264 71.9465 70.5489 71.822 70.8497C71.6976 71.1506 71.5152 71.424 71.2853 71.6542C71.0554 71.8845 70.7825 72.0672 70.4821 72.1918C70.1817 72.3164 69.8598 72.3806 69.5346 72.3806C69.2095 72.3806 68.8875 72.3164 68.5871 72.1918C68.2868 72.0672 68.0138 71.8845 67.7839 71.6542C67.554 71.424 67.3716 71.1506 67.2472 70.8497C67.1228 70.5489 67.0587 70.2264 67.0587 69.9007V66.6295C67.0587 66.3038 67.1228 65.9814 67.2472 65.6805C67.3716 65.3796 67.554 65.1062 67.7839 64.876C68.0138 64.6457 68.2868 64.463 68.5871 64.3384C68.8875 64.2138 69.2095 64.1496 69.5346 64.1496C69.8598 64.1496 70.1817 64.2138 70.4821 64.3384C70.7825 64.463 71.0554 64.6457 71.2853 64.876C71.5152 65.1062 71.6976 65.3796 71.822 65.6805ZM80.0399 56.5526C80.1643 56.8535 80.2284 57.1759 80.2284 57.5016V79.0286C80.2284 79.3543 80.1643 79.6767 80.0399 79.9776C79.9155 80.2785 79.7331 80.5519 79.5032 80.7821C79.2733 81.0124 79.0003 81.1951 78.6999 81.3197C78.3996 81.4443 78.0776 81.5085 77.7525 81.5085C77.4273 81.5085 77.1054 81.4443 76.805 81.3197C76.5046 81.1951 76.2317 81.0124 76.0018 80.7821C75.7719 80.5519 75.5895 80.2785 75.4651 79.9776C75.3406 79.6767 75.2766 79.3543 75.2766 79.0286V57.5016C75.2766 57.1759 75.3406 56.8535 75.4651 56.5526C75.5895 56.2517 75.7719 55.9784 76.0018 55.7481C76.2317 55.5178 76.5046 55.3352 76.805 55.2105C77.1054 55.0859 77.4273 55.0218 77.7525 55.0218C78.0776 55.0218 78.3996 55.0859 78.6999 55.2105C79.0003 55.3352 79.2733 55.5178 79.5032 55.7481C79.7331 55.9784 79.9155 56.2517 80.0399 56.5526ZM88.1523 42.7816C88.2767 43.0825 88.3408 43.405 88.3408 43.7306V92.7996C88.3408 93.1252 88.2767 93.4477 88.1523 93.7486C88.0279 94.0495 87.8455 94.3228 87.6156 94.5531C87.3857 94.7834 87.1128 94.966 86.8124 95.0907C86.512 95.2153 86.19 95.2794 85.8649 95.2794C85.5398 95.2794 85.2178 95.2153 84.9174 95.0907C84.617 94.966 84.3441 94.7834 84.1142 94.5531C83.8843 94.3228 83.7019 94.0494 83.5775 93.7486C83.453 93.4477 83.389 93.1252 83.389 92.7996V43.7306C83.389 43.405 83.453 43.0825 83.5775 42.7816C83.7019 42.4808 83.8843 42.2074 84.1142 41.9771C84.3441 41.7468 84.617 41.5642 84.9174 41.4396C85.2178 41.3149 85.5398 41.2508 85.8649 41.2508C86.19 41.2508 86.512 41.3149 86.8124 41.4396C87.1128 41.5642 87.3857 41.7468 87.6156 41.9771C87.8455 42.2074 88.0279 42.4808 88.1523 42.7816ZM96.3701 51.9623C96.4945 52.2631 96.5586 52.5856 96.5586 52.9113V83.6189C96.5586 83.9446 96.4945 84.2671 96.3701 84.5679C96.2457 84.8688 96.0633 85.1422 95.8334 85.3724C95.6035 85.6027 95.3306 85.7854 95.0302 85.91C94.7298 86.0346 94.4078 86.0988 94.0827 86.0988C93.7576 86.0988 93.4356 86.0346 93.1352 85.91C92.8348 85.7854 92.5619 85.6027 92.332 85.3724C92.1021 85.1422 91.9197 84.8688 91.7953 84.5679C91.6709 84.2671 91.6068 83.9446 91.6068 83.6189V52.9113C91.6068 52.5856 91.6709 52.2631 91.7953 51.9623C91.9197 51.6614 92.1021 51.388 92.332 51.1578C92.5619 50.9275 92.8348 50.7448 93.1352 50.6202C93.4356 50.4956 93.7576 50.4314 94.0827 50.4314C94.4078 50.4314 94.7298 50.4956 95.0302 50.6202C95.3306 50.7448 95.6035 50.9275 95.8334 51.1578C96.0633 51.388 96.2457 51.6614 96.3701 51.9623ZM104.483 61.0374C104.607 61.3383 104.671 61.6607 104.671 61.9864V74.4911C104.671 74.8167 104.607 75.1392 104.483 75.4401C104.358 75.7409 104.176 76.0143 103.946 76.2446C103.716 76.4748 103.443 76.6575 103.143 76.7821C102.842 76.9067 102.52 76.9709 102.195 76.9709C101.87 76.9709 101.548 76.9067 101.248 76.7821C100.947 76.6575 100.674 76.4748 100.444 76.2446C100.215 76.0143 100.032 75.7409 99.9077 75.44C99.7833 75.1392 99.7193 74.8167 99.7193 74.4911V61.9864C99.7193 61.6607 99.7833 61.3383 99.9077 61.0374C100.032 60.7365 100.215 60.4632 100.444 60.2329C100.674 60.0026 100.947 59.82 101.248 59.6953C101.548 59.5707 101.87 59.5066 102.195 59.5066C102.52 59.5066 102.842 59.5707 103.143 59.6953C103.443 59.82 103.716 60.0026 103.946 60.2329C104.176 60.4632 104.358 60.7365 104.483 61.0374ZM112.7 51.9623C112.825 52.2631 112.889 52.5856 112.889 52.9113V83.6189C112.889 83.9446 112.825 84.2671 112.7 84.5679C112.576 84.8688 112.394 85.1422 112.164 85.3724C111.934 85.6027 111.661 85.7854 111.36 85.91C111.06 86.0346 110.738 86.0988 110.413 86.0988C110.088 86.0988 109.766 86.0346 109.465 85.91C109.165 85.7854 108.892 85.6027 108.662 85.3724C108.432 85.1422 108.25 84.8688 108.126 84.5679C108.001 84.2671 107.937 83.9446 107.937 83.6189V52.9113C107.937 52.5856 108.001 52.2631 108.126 51.9623C108.25 51.6614 108.432 51.388 108.662 51.1578C108.892 50.9275 109.165 50.7448 109.465 50.6202C109.766 50.4956 110.088 50.4314 110.413 50.4314C110.738 50.4314 111.06 50.4956 111.36 50.6202C111.661 50.7448 111.934 50.9275 112.164 51.1578C112.394 51.388 112.576 51.6614 112.7 51.9623ZM120.813 65.6805C120.937 65.9814 121.001 66.3038 121.001 66.6295V69.9007C121.001 70.2264 120.937 70.5489 120.813 70.8497C120.688 71.1506 120.506 71.424 120.276 71.6542C120.046 71.8845 119.773 72.0672 119.473 72.1918C119.173 72.3164 118.851 72.3806 118.525 72.3806C118.2 72.3806 117.878 72.3164 117.578 72.1918C117.278 72.0672 117.005 71.8845 116.775 71.6542C116.545 71.424 116.362 71.1506 116.238 70.8497C116.114 70.5489 116.05 70.2264 116.05 69.9007V66.6295C116.05 66.3038 116.114 65.9814 116.238 65.6805C116.362 65.3796 116.545 65.1062 116.775 64.876C117.005 64.6457 117.278 64.463 117.578 64.3384C117.878 64.2138 118.2 64.1496 118.525 64.1496C118.851 64.1496 119.173 64.2138 119.473 64.3384C119.773 64.463 120.046 64.6457 120.276 64.876C120.506 65.1062 120.688 65.3796 120.813 65.6805Z" fill="#F87171"/>
<path d="M188.971 111.4C186.19 111.4 183.856 110.506 181.968 108.719C180.181 106.832 179.287 104.498 179.287 101.717V60.3048C179.287 57.7228 180.181 55.5379 181.968 53.7503C183.756 51.9627 185.941 51.069 188.524 51.069H202.827C208.389 51.069 212.859 52.6083 216.236 55.6869C219.613 58.6662 221.301 62.3407 221.301 66.7103C221.301 71.3779 219.762 75.1021 216.683 77.8828C222.046 80.6634 224.728 85.4303 224.728 92.1834C224.728 97.8441 222.891 102.462 219.216 106.037C215.541 109.612 210.624 111.4 204.466 111.4H188.971ZM194.632 99.4828H205.062C207.048 99.4828 208.687 98.8869 209.978 97.6952C211.369 96.5034 212.064 94.7655 212.064 92.4814C212.064 90.1972 211.419 88.4593 210.127 87.2676C208.836 86.0759 207.148 85.48 205.062 85.48H194.632C193.143 85.48 192.398 86.2248 192.398 87.7145V97.2483C192.398 98.7379 193.143 99.4828 194.632 99.4828ZM194.632 74.1586H202.827C204.615 74.1586 206.005 73.5628 206.999 72.371C207.992 71.1793 208.488 69.8883 208.488 68.4979C208.488 67.1076 207.992 65.8662 206.999 64.7738C206.005 63.5821 204.615 62.9862 202.827 62.9862H194.632C193.143 62.9862 192.398 63.731 192.398 65.2207V71.9241C192.398 73.4138 193.143 74.1586 194.632 74.1586Z" fill="black"/>
<path d="M241.117 112.443C239.23 112.443 237.641 111.897 236.349 110.804C235.058 109.712 234.412 108.321 234.412 106.633V73.2648C234.412 71.6759 235.008 70.3352 236.2 69.2428C237.492 68.051 239.13 67.4552 241.117 67.4552C242.905 67.4552 244.345 68.0014 245.438 69.0938C246.63 70.0869 247.325 71.3283 247.523 72.8179C248.616 71.1296 250.106 69.6896 251.993 68.4979C253.88 67.3062 255.867 66.7103 257.953 66.7103C259.244 66.7103 260.486 66.8593 261.677 67.1572C263.068 67.5545 264.21 68.349 265.104 69.5407C265.998 70.6331 266.445 71.9241 266.445 73.4138C266.445 75.4993 265.75 77.2372 264.359 78.6276C263.068 79.9186 261.528 80.3655 259.741 79.9683C258.449 79.6703 257.158 79.5214 255.867 79.5214C253.582 79.5214 251.695 80.3159 250.205 81.9048C248.715 83.4938 247.821 86.7214 247.523 91.5876V106.484C247.523 108.172 246.878 109.612 245.587 110.804C244.395 111.897 242.905 112.443 241.117 112.443Z" fill="black"/>
<path d="M302.465 73.1159C302.465 71.229 303.061 69.6896 304.253 68.4979C305.545 67.3062 307.134 66.7103 309.021 66.7103C310.908 66.7103 312.448 67.3559 313.64 68.6469C314.931 69.8386 315.576 71.3283 315.576 73.1159V94.12C315.576 98.1917 314.534 101.668 312.448 104.548C310.362 107.328 307.68 109.414 304.402 110.804C301.125 112.194 297.648 112.89 293.973 112.89C290.397 112.89 286.971 112.194 283.693 110.804C280.415 109.414 277.684 107.328 275.498 104.548C273.413 101.668 272.37 98.1917 272.37 94.12V73.1159C272.37 71.229 272.966 69.6896 274.158 68.4979C275.449 67.3062 277.038 66.7103 278.925 66.7103C280.812 66.7103 282.352 67.3559 283.544 68.6469C284.835 69.8386 285.481 71.3283 285.481 73.1159V93.5241C285.481 95.6097 286.275 97.3476 287.865 98.7379C289.454 100.128 291.49 100.823 293.973 100.823C296.456 100.823 298.492 100.128 300.082 98.7379C301.671 97.3476 302.465 95.6097 302.465 93.5241V73.1159Z" fill="black"/>
<path d="M342.298 112.89C335.544 112.89 329.981 111.499 325.611 108.719C324.717 108.123 324.072 107.428 323.674 106.633C323.277 105.739 323.078 104.895 323.078 104.101C323.078 102.412 323.625 100.873 324.717 99.4828C325.909 98.0924 327.349 97.3972 329.038 97.3972C329.832 97.3972 330.627 97.5959 331.422 97.9931C333.21 98.7876 335.246 99.4828 337.53 100.079C339.815 100.575 341.901 100.823 343.788 100.823C347.463 100.823 349.3 99.9793 349.3 98.291C349.3 97.2979 348.853 96.4538 347.959 95.7586C347.065 94.9641 344.98 94.4179 341.702 94.12C340.411 94.0207 338.722 93.8221 336.636 93.5241C334.65 93.2262 332.663 92.68 330.677 91.8855C328.69 90.9917 327.002 89.7007 325.611 88.0124C324.32 86.3241 323.674 84.04 323.674 81.16C323.674 76.691 325.363 73.1655 328.74 70.5834C332.117 68.0014 336.636 66.7103 342.298 66.7103C345.576 66.7103 348.655 67.0579 351.535 67.7531C354.515 68.4483 356.75 69.491 358.24 70.8814C359.63 72.1724 360.325 73.6621 360.325 75.3503C360.325 76.84 359.779 78.1807 358.687 79.3724C357.594 80.5641 356.203 81.16 354.515 81.16C353.621 81.16 352.777 80.9614 351.982 80.5641C350.79 79.7697 349.251 79.1738 347.363 78.7765C345.576 78.3793 343.738 78.1807 341.851 78.1807C338.076 78.1807 336.189 78.9752 336.189 80.5641C336.189 81.2593 336.537 81.9048 337.232 82.5007C338.027 82.9972 339.765 83.4441 342.447 83.8414C344.135 84.04 346.072 84.3379 348.257 84.7352C350.443 85.0331 352.528 85.629 354.515 86.5228C356.601 87.3172 358.339 88.6579 359.73 90.5448C361.12 92.4317 361.815 95.0138 361.815 98.291C361.815 102.76 360.028 106.335 356.452 109.017C352.876 111.599 348.158 112.89 342.298 112.89Z" fill="black"/>
<path d="M376.72 112.89C374.833 112.89 373.244 112.343 371.952 111.251C370.661 110.159 370.016 108.768 370.016 107.08V51.6648C370.016 50.0759 370.612 48.7352 371.803 47.6427C373.095 46.451 374.734 45.8552 376.72 45.8552C378.607 45.8552 380.147 46.451 381.339 47.6427C382.531 48.7352 383.127 50.1255 383.127 51.8138V71.6262C384.418 70.1365 386.156 68.9448 388.341 68.051C390.526 67.1572 392.861 66.7103 395.344 66.7103C400.906 66.7103 405.376 68.349 408.753 71.6262C412.229 74.9034 413.967 80.1172 413.967 87.2676V107.378C413.967 108.967 413.322 110.308 412.03 111.4C410.839 112.393 409.299 112.89 407.412 112.89C405.525 112.89 403.935 112.343 402.644 111.251C401.452 110.159 400.856 108.768 400.856 107.08V88.9062C400.856 85.2317 400.012 82.6 398.323 81.011C396.734 79.4221 394.748 78.6276 392.364 78.6276C389.881 78.6276 387.845 79.4717 386.255 81.16C384.666 82.749 383.623 84.5365 383.127 86.5228V106.931C383.127 108.619 382.481 110.059 381.19 111.251C379.998 112.343 378.508 112.89 376.72 112.89Z" fill="black"/>
<path d="M431.863 112.89C429.976 112.89 428.387 112.343 427.096 111.251C425.805 110.159 425.159 108.768 425.159 107.08V73.2648C425.159 71.6759 425.755 70.3352 426.947 69.2428C428.238 68.051 429.877 67.4552 431.863 67.4552C434.148 67.4552 435.886 68.2497 437.078 69.8386C437.575 70.4345 437.873 71.0303 437.972 71.6262C439.164 70.1365 440.753 68.9448 442.74 68.051C444.726 67.1572 446.961 66.7103 449.444 66.7103C456.198 66.7103 461.065 68.9448 464.045 73.4138C465.833 71.229 468.018 69.5903 470.601 68.4979C473.183 67.3062 475.865 66.7103 478.646 66.7103C484.208 66.7103 488.578 68.349 491.757 71.6262C495.035 74.9034 496.674 80.1172 496.674 87.2676V107.378C496.674 108.967 496.028 110.308 494.737 111.4C493.545 112.393 492.005 112.89 490.118 112.89C488.231 112.89 486.642 112.343 485.35 111.251C484.158 110.159 483.563 108.768 483.563 107.08V88.9062C483.563 85.2317 482.917 82.6 481.626 81.011C480.334 79.4221 478.497 78.6276 476.113 78.6276C473.729 78.6276 471.792 79.3724 470.303 80.8621C468.912 82.2524 467.968 83.9407 467.472 85.9269V107.378C467.472 108.967 466.826 110.308 465.535 111.4C464.343 112.393 462.803 112.89 460.916 112.89C459.029 112.89 457.44 112.343 456.149 111.251C454.957 110.159 454.361 108.768 454.361 107.08V88.9062C454.361 85.2317 453.715 82.6 452.424 81.011C451.133 79.4221 449.295 78.6276 446.911 78.6276C444.627 78.6276 442.74 79.3724 441.25 80.8621C439.76 82.2524 438.767 83.891 438.27 85.7779V106.931C438.27 108.619 437.624 110.059 436.333 111.251C435.141 112.343 433.651 112.89 431.863 112.89Z" fill="black"/>
<path d="M527.17 112.89C520.515 112.89 515.102 110.804 510.93 106.633C506.858 102.363 504.821 96.7021 504.821 89.651C504.821 82.6 506.808 77.0386 510.781 72.9669C514.853 68.7959 520.167 66.7103 526.723 66.7103C531.391 66.7103 535.463 68.349 538.94 71.6262C539.337 70.4345 540.082 69.4414 541.175 68.6469C542.267 67.8524 543.558 67.4552 545.048 67.4552C547.035 67.4552 548.624 68.051 549.816 69.2428C551.107 70.3352 551.753 71.6759 551.753 73.2648V107.08C551.753 108.768 551.107 110.159 549.816 111.251C548.624 112.343 547.035 112.89 545.048 112.89C541.771 112.89 539.734 111.45 538.94 108.57C535.761 111.45 531.838 112.89 527.17 112.89ZM528.213 100.823C531.391 100.823 533.924 99.7807 535.811 97.6952C537.698 95.5103 538.642 92.829 538.642 89.651C538.642 86.3738 537.698 83.7421 535.811 81.7559C533.924 79.7696 531.391 78.7765 528.213 78.7765C525.134 78.7765 522.601 79.7696 520.614 81.7559C518.727 83.7421 517.783 86.3738 517.783 89.651C517.783 92.829 518.727 95.5103 520.614 97.6952C522.601 99.7807 525.134 100.823 528.213 100.823Z" fill="black"/>
<defs>
<linearGradient id="paint0_linear_102_24" x1="4.39584e-06" y1="158" x2="590.035" y2="0.131951" gradientUnits="userSpaceOnUse">
<stop offset="0.510417" stop-color="white" stop-opacity="0"/>
<stop offset="1" stop-color="#F87171"/>
</linearGradient>
<linearGradient id="paint1_linear_102_24" x1="-4.39584e-06" y1="158" x2="590.035" y2="0.131907" gradientUnits="userSpaceOnUse">
<stop stop-color="#7DD3FC"/>
<stop offset="0.536458" stop-color="white" stop-opacity="0"/>
<stop offset="1" stop-color="white" stop-opacity="0"/>
</linearGradient>
</defs>
</svg>
